<?xml version="1.0" standalone="no"?>
<!DOCTYPE svg PUBLIC "-//W3C//DTD SVG 20010904//EN"
 "http://www.w3.org/TR/2001/REC-SVG-20010904/DTD/svg10.dtd">
<svg version="1.0" xmlns="http://www.w3.org/2000/svg"
 width="512.000000pt" height="512.000000pt" viewBox="0 0 512.000000 512.000000"
 preserveAspectRatio="xMidYMid meet">
<metadata>
Created by potrace 1.11, written by Peter Selinger 2001-2013
</metadata>
<g transform="translate(0.000000,512.000000) scale(0.100000,-0.100000)"
fill="#000000" stroke="none">
<path d="M1595 5104 c-123 -30 -246 -111 -326 -216 -29 -39 -51 -58 -66 -59
-13 -1 -26 -2 -30 -3 -5 -1 -26 -5 -47 -10 -100 -20 -205 -105 -258 -210 -23
-46 -31 -78 -35 -137 -5 -70 -8 -78 -28 -83 -36 -9 -121 -97 -150 -156 -97
-194 33 -437 249 -466 l46 -7 1 -1691 c0 -930 2 -1756 3 -1836 2 -158 7 -174
63 -211 27 -18 79 -19 1239 -19 l1211 0 34 23 c59 40 60 46 61 401 l2 323 82
7 c317 24 601 195 752 452 33 57 79 182 90 247 9 57 9 1322 -1 1372 -29 153
-100 287 -211 403 -171 179 -405 284 -661 297 l-50 2 -2 151 -2 151 57 26 c65
29 106 70 135 135 22 49 25 137 7 184 -9 25 -8 31 12 45 12 9 25 18 29 21 16
13 39 72 39 105 0 76 -51 140 -124 154 -26 6 -31 12 -32 36 -3 128 -72 238
-183 293 -47 23 -69 27 -136 27 -81 0 -102 -7 -192 -61 -32 -19 -32 -19 -55 3
-59 54 -185 94 -277 87 -27 -2 -73 -13 -104 -24 l-55 -21 -37 25 c-61 42 -141
67 -214 67 -73 0 -109 -9 -176 -42 l-45 -23 -49 55 c-108 121 -254 189 -416
194 -54 2 -114 -3 -150 -11z m2040 -1999 c160 -28 315 -159 389 -328 50 -112
53 -148 51 -657 -1 -525 -1 -524 -68 -660 -42 -86 -160 -204 -242 -244 -62
-30 -145 -56 -181 -56 l-21 0 0 979 c0 893 1 979 16 976 9 -1 34 -6 56 -10z"/>
</g>
</svg>
